{"title":"5 Souls 2011 HDRip x264 AAC-KiSSMYACE","uid":8805593,"size":531856652,"categoryP":"video","categoryS":"movies","magnet":"?xt=urn:btih:8084330d94cc04cbecfeb80dc98d5d600b273db5&amp;dn=5+Souls+2011+HDRip+x264+AAC-KiSSMYACE+&amp;tr=udp%3A%2F%2Ftracker.openbittorrent.com%3A80&amp;tr=udp%3A%2F%2Fopen.demonii.com%3A1337&amp;tr=udp%3A%2F%2Ftracker.coppersurfer.tk%3A6969&amp;tr=udp%3A%2F%2Fexodus.desync.com%3A6969","seeders":0,"leechers":2,"uploader":"R0thschild","files":4,"time":1376322337,"description":"Public Hash - Largest Bittorrent Community \nCrystal Clean files - Fast Speed! No Virus! No Fake! Enjoy!\n &lt;a href=&quot;\nhttp://www.imdb.com/title/tt1737795/&quot; rel=&quot;nofollow&quot; target=&quot;_NEW&quot;&gt;\nhttp://www.imdb.com/title/tt1737795/&lt;/a&gt;\n\nGeneral\nComplete name: 5 Souls 2011 HDRip x264 AAC-KiSSMYACE.mp4\nFormat: MPEG-4\nFormat profile: Base Media\nCodec ID: isom\nFile size: 502 MiB\nDuration: 1h 18mn\nOverall bit rate mode: Variable\nOverall bit rate: 889 Kbps\nEncoded date: UTC 2013-08-11 21:45:07\nTagged date: UTC 2013-08-11 21:45:07\n\nVideo\nID: 1\nFormat: AVC\nFormat/Info: Advanced Video Codec\nFormat profile: &lt;a class=&quot;__cf_email__&quot; href=&quot;/cdn-cgi/l/email-protection&quot; data-cfemail=&quot;fab2939d92bab6ced4cb&quot;&gt;[email&amp;#160;protected]&lt;/a&gt;&lt;script cf-hash='f9e31' type=&quot;text/javascript&quot;&gt;\n/* &lt;![CDATA[ */!function(){try{var t=&quot;currentScript&quot;in document?document.currentScript:function(){for(var t=document.getElementsByTagName(&quot;script&quot;),e=t.length;e--;)if(t[e].getAttribute(&quot;cf-hash&quot;))return t[e]}();if(t&amp;&amp;t.previousSibling){var e,r,n,i,c=t.previousSibling,a=c.getAttribute(&quot;data-cfemail&quot;);if(a){for(e=&quot;&quot;,r=parseInt(a.substr(0,2),16),n=2;a.length-n;n+=2)i=parseInt(a.substr(n,2),16)^r,e+=String.fromCharCode(i);e=document.createTextNode(e),c.parentNode.replaceChild(e,c)}}}catch(u){}}();/* ]]&gt; */&lt;/script&gt;\nFormat settings, CABAC: Yes\nFormat settings, ReFrames: 3 frames\nCodec ID: avc1\nCodec ID/Info: Advanced Video Coding\nDuration: 1h 18mn\nBit rate mode: Variable\nBit rate: 550 Kbps\nMaximum bit rate: 40.0 Mbps\nWidth: 720 pixels\nHeight: 400 pixels\nDisplay aspect ratio: 16:9\nFrame rate mode: Constant\nFrame rate: 23.976 fps\nColor space: YUV\nChroma subsampling: 4:2:0\nBit depth: 8 bits\nScan type: Progressive\nBits/(Pixel*Frame): 0.080\nStream size: 310 MiB (62%)\nWriting library: x264 core 135 r2345 f0c1c53\n\nAudio\nID: 2\nFormat: AAC\nFormat/Info: Advanced Audio Codec\nFormat profile: LC\nCodec ID: 40\nDuration: 1h 18mn\nBit rate mode: Variable\nBit rate: 335 Kbps\nMaximum bit rate: 388 Kbps\nChannel(s): 6 channels\nChannel positions: Front: L C R, Side: L R, LFE\nSampling rate: 48.0 KHz\nCompression mode: Lossy\nStream size: 189 MiB (38%)\nLanguage: English\nEncoded date: UTC 2013-08-11 20:35:13\nTagged date: UTC 2013-08-11 21:45:39  ","torrent":{"xt":"urn:btih:8084330d94cc04cbecfeb80dc98d5d600b273db5","amp;dn":"5+Souls+2011+HDRip+x264+AAC-KiSSMYACE+","amp;tr":["udp%3A%2F%2Ftracker.openbittorrent.com%3A80","udp%3A%2F%2Fopen.demonii.com%3A1337","udp%3A%2F%2Ftracker.coppersurfer.tk%3A6969","udp%3A%2F%2Fexodus.desync.com%3A6969"],"infoHash":"8084330d94cc04cbecfeb80dc98d5d600b273db5","infoHashBuffer":{"type":"Buffer","data":[128,132,51,13,148,204,4,203,236,254,184,13,201,141,93,96,11,39,61,181]},"announce":[],"urlList":[]}}